<svg id="Layer_1" data-name="Layer 1" xmlns="http://www.w3.org/2000/svg" viewBox="0 0 376.57 97.06"><defs><style>.cls-1{fill:#fff;fill-rule:evenodd;}</style></defs><path class="cls-1" d="M117.85,55c0,9,5.54,10,10.78,10h5.94c5.74,0,10.44-1.16,10.44-6.44v-.91h-7.43c0,1.24-.2,2.4-4.5,2.4h-2.43c-3.3,0-4.87-.62-4.87-2.85V55.89H145V52.34c0-7.31-3.46-9.08-11.88-9.08H127.6c-5.78,0-9.75,1.73-9.75,9.7Zm7.93-3.8c0-2.51.62-3,5.78-3,4.62,0,5.78.46,5.78,3Z"/><path class="cls-1" d="M157.4,53.08c0-3.17,1.65-3.88,4.79-3.88h4.16c3.8,0,4.17,1.32,4.17,3.68v2.47c0,2.36-.37,3.68-4.17,3.68h-4.16c-3.14,0-4.79-.7-4.79-3.88ZM149.47,72h7.93V61h.08c1.77,3.34,3.34,4,7.84,4h1.61c10,0,11.27-3.59,11.27-9V52.22c0-5.37-1.24-9-11.27-9h-2.27c-4.62,0-6.44,1.61-7.43,3.47h-.08V43.59h-7.68Z"/><path class="cls-1" d="M191.5,43.59h-7.93v21h7.93Zm0-8.83h-7.93V41h7.93Z"/><path class="cls-1" d="M196.4,55c0,9,5.54,10,10.78,10h8.09c4.54,0,9.24-1.61,9.24-7.26V55.85h-7.67v.49c0,1.94-2,2.44-4.26,2.44h-4c-2.48,0-4.21-.83-4.21-3.55V52.42c0-2.31,1.57-3.22,4.87-3.22h3.05c3.47,0,4.59.79,4.59,2.93h7.67V50.24c0-4.83-3.59-7-9.45-7h-8.91c-5.78,0-9.75,1.73-9.75,9.7Z"/><path class="cls-1" d="M228.19,58.08c0,5.2,2.68,6.89,10,6.89h7.52c9,0,11.26-1.44,11.26-7,0-3.75-.7-6.93-10.19-6.93h-5.49c-4.13,0-4.75-.33-4.75-1.24,0-1.44.87-1.57,5.45-1.57,4.75,0,5.49.21,5.9,1.45h7.93c-.08-5-1.9-6.4-12.26-6.4H238c-5.45,0-9.66.78-9.66,6,0,5.77,2.19,7.38,9.58,7.43h7.43c2.8,0,3.42.49,3.42,1.73s-.95,1.57-4.7,1.57h-2.81c-4.5,0-4.91-.79-4.91-1.94Z"/><path class="cls-1" d="M260.62,55c0,9,5.53,10,10.77,10h5.95c5.74,0,10.44-1.16,10.44-6.44v-.91h-7.43c0,1.24-.2,2.4-4.5,2.4h-2.43c-3.3,0-4.87-.62-4.87-2.85V55.89h19.23V52.34c0-7.31-3.47-9.08-11.89-9.08h-5.53c-5.78,0-9.74,1.73-9.74,9.7Zm7.93-3.8c0-2.51.62-3,5.78-3,4.62,0,5.77.46,5.77,3Z"/><path class="cls-1" d="M292.24,64.64h7.93V53c0-2.52,1.89-3.55,4.62-3.55,3.18,0,3.8,1.28,3.8,4h6.85c0-.74.08-1.32.08-1.85,0-5.82-2.27-8.3-8-8.3-3.59,0-6.81,1-7.72,4.33h-.08v-4h-7.43Z"/><polygon class="cls-1" points="327.41 64.64 337.32 64.64 347.43 43.59 338.81 43.59 332.37 58.45 325.93 43.59 317.3 43.59 327.41 64.64"/><path class="cls-1" d="M349.41,55c0,9,5.53,10,10.78,10h5.94c5.74,0,10.44-1.16,10.44-6.44v-.91h-7.43c0,1.24-.2,2.4-4.5,2.4h-2.43c-3.3,0-4.87-.62-4.87-2.85V55.89h19.23V52.34c0-7.31-3.46-9.08-11.88-9.08h-5.54c-5.77,0-9.74,1.73-9.74,9.7Zm7.93-3.8c0-2.51.62-3,5.78-3,4.62,0,5.77.46,5.77,3Z"/><path class="cls-1" d="M0,44.11A48.55,48.55,0,0,1,72.09,6.2,23.45,23.45,0,0,0,68,6.35C42.71,9.41,26.08,27.12,13.38,48.28A50.35,50.35,0,0,0,11,52.77a10.3,10.3,0,0,1-1.18-.4C5.3,50.62,1.4,47.63,0,44.11Z"/><path class="cls-1" d="M2.33,56.06A17.33,17.33,0,0,0,8.46,59.5a35.45,35.45,0,0,0-1,15.28A48.18,48.18,0,0,1,.06,53.61,17.19,17.19,0,0,0,2.33,56.06Z"/><path class="cls-1" d="M90.67,24.79A48.54,48.54,0,0,1,18.1,86.5c3.57.69,8.17.39,14-1.25C52.48,79.53,68.93,65.94,80.38,47a83,83,0,0,0,5.5-10.65c.64-1.41,1.49-3.38,2.13-4.95C89.16,28.85,89.84,27.15,90.67,24.79Z"/><path class="cls-1" d="M65.1,12.79C78,10.63,52.37,44.18,28.18,51.66a43.93,43.93,0,0,1-8.06,2S38.65,20.19,65.1,12.79Z"/><path class="cls-1" d="M79.71,11.51a49.06,49.06,0,0,1,6.41,6.56c-8.52,25.55-33,48.21-58.32,53.77C19.73,73.61,16.26,67.17,18.22,60,37.56,59,81.94,31.74,79.71,11.51Z"/></svg>